ModelForces
version=1
nRows=4
nColumns=206
inDegrees=no

This file contains the forces exerted on a model during a simulation.

A force is a generalized force, meaning that it can be either a force (N) or a torque (Nm).

Units are S.I. units (second, meters, Newtons, ...)
Angles are in degrees.

endheader
time	glut_med1_r	glut_med2_r	glut_med3_r	glut_min1_r	glut_min2_r	glut_min3_r	semimem_r	semiten_r	bifemlh_r	bifemsh_r	sar_r	add_long_r	add_brev_r	add_mag1_r	add_mag2_r	add_mag3_r	tfl_r	pect_r	grac_r	glut_max1_r	glut_max2_r	glut_max3_r	iliacus_r	psoas_r	quad_fem_r	gem_r	peri_r	rect_fem_r	vas_med_r	vas_int_r	vas_lat_r	med_gas_r	lat_gas_r	soleus_r	tib_post_r	flex_dig_r	flex_hal_r	tib_ant_r	per_brev_r	per_long_r	per_tert_r	ext_dig_r	ext_hal_r	glut_med1_l	glut_med2_l	glut_med3_l	glut_min1_l	glut_min2_l	glut_min3_l	semimem_l	semiten_l	bifemlh_l	bifemsh_l	sar_l	add_long_l	add_brev_l	add_mag1_l	add_mag2_l	add_mag3_l	tfl_l	pect_l	grac_l	glut_max1_l	glut_max2_l	glut_max3_l	iliacus_l	psoas_l	quad_fem_l	gem_l	peri_l	rect_fem_l	vas_med_l	vas_int_l	vas_lat_l	med_gas_l	lat_gas_l	soleus_l	tib_post_l	flex_dig_l	flex_hal_l	tib_ant_l	per_brev_l	per_long_l	per_tert_l	ext_dig_l	ext_hal_l	ercspn_r	ercspn_l	intobl_r	intobl_l	extobl_r	extobl_l	femur_lat_meniscii_l.femur_lat_l.force.X	femur_lat_meniscii_l.femur_lat_l.force.Y	femur_lat_meniscii_l.femur_lat_l.force.Z	femur_lat_meniscii_l.femur_lat_l.torque.X	femur_lat_meniscii_l.femur_lat_l.torque.Y	femur_lat_meniscii_l.femur_lat_l.torque.Z	femur_lat_meniscii_l.meniscus_lat_l.force.X	femur_lat_meniscii_l.meniscus_lat_l.force.Y	femur_lat_meniscii_l.meniscus_lat_l.force.Z	femur_lat_meniscii_l.meniscus_lat_l.torque.X	femur_lat_meniscii_l.meniscus_lat_l.torque.Y	femur_lat_meniscii_l.meniscus_lat_l.torque.Z	femur_med_meniscii_l.femur_med_l.force.X	femur_med_meniscii_l.femur_med_l.force.Y	femur_med_meniscii_l.femur_med_l.force.Z	femur_med_meniscii_l.femur_med_l.torque.X	femur_med_meniscii_l.femur_med_l.torque.Y	femur_med_meniscii_l.femur_med_l.torque.Z	femur_med_meniscii_l.meniscus_med_l.force.X	femur_med_meniscii_l.meniscus_med_l.force.Y	femur_med_meniscii_l.meniscus_med_l.force.Z	femur_med_meniscii_l.meniscus_med_l.torque.X	femur_med_meniscii_l.meniscus_med_l.torque.Y	femur_med_meniscii_l.meniscus_med_l.torque.Z	femur_lat_meniscii_r.femur_lat_r.force.X	femur_lat_meniscii_r.femur_lat_r.force.Y	femur_lat_meniscii_r.femur_lat_r.force.Z	femur_lat_meniscii_r.femur_lat_r.torque.X	femur_lat_meniscii_r.femur_lat_r.torque.Y	femur_lat_meniscii_r.femur_lat_r.torque.Z	femur_lat_meniscii_r.meniscus_lat_r.force.X	femur_lat_meniscii_r.meniscus_lat_r.force.Y	femur_lat_meniscii_r.meniscus_lat_r.force.Z	femur_lat_meniscii_r.meniscus_lat_r.torque.X	femur_lat_meniscii_r.meniscus_lat_r.torque.Y	femur_lat_meniscii_r.meniscus_lat_r.torque.Z	femur_med_meniscii_r.femur_med_r.force.X	femur_med_meniscii_r.femur_med_r.force.Y	femur_med_meniscii_r.femur_med_r.force.Z	femur_med_meniscii_r.femur_med_r.torque.X	femur_med_meniscii_r.femur_med_r.torque.Y	femur_med_meniscii_r.femur_med_r.torque.Z	femur_med_meniscii_r.meniscus_med_r.force.X	femur_med_meniscii_r.meniscus_med_r.force.Y	femur_med_meniscii_r.meniscus_med_r.force.Z	femur_med_meniscii_r.meniscus_med_r.torque.X	femur_med_meniscii_r.meniscus_med_r.torque.Y	femur_med_meniscii_r.meniscus_med_r.torque.Z	femur_med_tibia_l.tibia_upper_l.force.X	femur_med_tibia_l.tibia_upper_l.force.Y	femur_med_tibia_l.tibia_upper_l.force.Z	femur_med_tibia_l.tibia_upper_l.torque.X	femur_med_tibia_l.tibia_upper_l.torque.Y	femur_med_tibia_l.tibia_upper_l.torque.Z	femur_med_tibia_l.femur_med_l.force.X	femur_med_tibia_l.femur_med_l.force.Y	femur_med_tibia_l.femur_med_l.force.Z	femur_med_tibia_l.femur_med_l.torque.X	femur_med_tibia_l.femur_med_l.torque.Y	femur_med_tibia_l.femur_med_l.torque.Z	femur_lat_tibia_l.tibia_upper_l.force.X	femur_lat_tibia_l.tibia_upper_l.force.Y	femur_lat_tibia_l.tibia_upper_l.force.Z	femur_lat_tibia_l.tibia_upper_l.torque.X	femur_lat_tibia_l.tibia_upper_l.torque.Y	femur_lat_tibia_l.tibia_upper_l.torque.Z	femur_lat_tibia_l.femur_lat_l.force.X	femur_lat_tibia_l.femur_lat_l.force.Y	femur_lat_tibia_l.femur_lat_l.force.Z	femur_lat_tibia_l.femur_lat_l.torque.X	femur_lat_tibia_l.femur_lat_l.torque.Y	femur_lat_tibia_l.femur_lat_l.torque.Z	femur_med_tibia_r.tibia_upper_r.force.X	femur_med_tibia_r.tibia_upper_r.force.Y	femur_med_tibia_r.tibia_upper_r.force.Z	femur_med_tibia_r.tibia_upper_r.torque.X	femur_med_tibia_r.tibia_upper_r.torque.Y	femur_med_tibia_r.tibia_upper_r.torque.Z	femur_med_tibia_r.femur_med_r.force.X	femur_med_tibia_r.femur_med_r.force.Y	femur_med_tibia_r.femur_med_r.force.Z	femur_med_tibia_r.femur_med_r.torque.X	femur_med_tibia_r.femur_med_r.torque.Y	femur_med_tibia_r.femur_med_r.torque.Z	femur_lat_tibia_r.tibia_upper_r.force.X	femur_lat_tibia_r.tibia_upper_r.force.Y	femur_lat_tibia_r.tibia_upper_r.force.Z	femur_lat_tibia_r.tibia_upper_r.torque.X	femur_lat_tibia_r.tibia_upper_r.torque.Y	femur_lat_tibia_r.tibia_upper_r.torque.Z	femur_lat_tibia_r.femur_lat_r.force.X	femur_lat_tibia_r.femur_lat_r.force.Y	femur_lat_tibia_r.femur_lat_r.force.Z	femur_lat_tibia_r.femur_lat_r.torque.X	femur_lat_tibia_r.femur_lat_r.torque.Y	femur_lat_tibia_r.femur_lat_r.torque.Z	aACL_R	pACL_R	aPCL_R	pPCL_R	aMCL_R	mMCL_R	pMCL_R	aLCL_R	mLCL_R	pLCL_R	aPCL_L	pPCL_L	aMCL_L	aLCL_L	ground_prescribedForce_-90_fx	ground_prescribedForce_-90_fy	ground_prescribedForce_-90_fz
      0.00000000	     37.48087652	     28.28714471	     30.25598133	     13.28977762	     14.47626353	     15.91713841	      0.00000000	     14.93394371	     14.72974071	     24.18580536	      7.29249363	     27.93927808	     20.68957741	     14.51222487	     12.16230296	     19.66717628	     11.98515203	     11.16605282	      6.67712316	     18.12681708	     27.55933735	     20.56469162	     63.94906620	     55.74758807	     18.09791099	      9.16719286	     20.03897647	    222.00615091	     78.08105591	    112.09656335	    109.79150584	     10.50275607	      9.82718344	    152.72720615	     92.44658902	     14.93332009	     15.26895791	     41.82851940	     21.62523106	     46.40594865	      8.86060096	     25.04818486	      7.96045570	     37.48087652	     28.28714471	     30.25598133	     13.28977762	     14.47626353	     15.91713841	     42.06683902	     20.39635155	     37.67631238	     36.01822118	      7.59254209	     27.93927808	     20.68957741	     14.51222487	     12.16230296	     19.66717628	     12.58139899	     11.16605282	      7.78214370	     18.12681708	     27.55933735	     20.56469162	     63.94906620	     55.74758807	     18.09791099	      9.16719286	     20.03897647	     52.59637061	     32.48786114	     37.22481259	     39.87514307	     67.71424671	     31.64857027	    152.72720615	     92.44658902	     14.93332009	     15.26895791	     41.82851940	     21.62523106	     46.40594865	      8.86060096	     25.04818486	      7.96045570	    124.99446086	    124.99446086	     44.97041513	     44.97041513	     60.98287244	     60.98287244	      2.76307435	     50.99597937	     -9.56042239	      5.21997485	     -0.02578839	      1.48581788	     -2.76307435	    -50.99597937	      9.56042239	     -1.74637766	      0.02558040	     -0.48301696	     -3.31599387	     20.97615968	     -3.40468921	      0.94473225	     -0.02138609	     -1.00501789	      3.31599387	    -20.97615968	      3.40468921	      0.28075727	      0.00368718	     -0.29758878	     82.06651735	    -20.57321461	      1.32625263	     -0.00932964	      1.90435437	     33.26068052	    -82.06651735	     20.57321461	     -1.32625263	     -0.61873248	     -2.35115890	     -1.32810305	      0.00000000	      0.00000000	      0.00000000	      0.00000000	      0.00000000	      0.00000000	      0.00000000	      0.00000000	      0.00000000	      0.00000000	      0.00000000	      0.00000000	      0.00000000	      0.00000000	      0.00000000	      0.00000000	      0.00000000	      0.00000000	      0.00000000	      0.00000000	      0.00000000	      0.00000000	      0.00000000	      0.00000000	      0.00000000	      0.00000000	      0.00000000	      0.00000000	      0.00000000	      0.00000000	      0.00000000	      0.00000000	      0.00000000	      0.00000000	      0.00000000	      0.00000000	    -96.66847006	     -4.58063637	     46.04628420	     -0.45936749	      2.42151461	     -0.72467985	     96.66847006	      4.58063637	    -46.04628420	     18.71659922	     -1.63858415	     39.13136149	      0.00000000	      0.00000000	      0.00000000	      0.00000000	      0.00000000	      0.00000000	      0.00000000	      0.00000000	      0.00000000	      0.00000000	      0.00000000	      0.00000000	      3.75010814	     17.47868432	   1287.55116648	    863.31441598	     10.27620863	      2.10632205	      2.65478636	      0.00000000	      0.00000000	      0.00000000	      0.00000000	      0.00000000	      0.00000001	      0.00000000	      0.00000000	   -110.00000000	      0.00000000
      0.00100000	     37.47068608	     28.27022932	     30.24086714	     13.26950867	     14.46480712	     15.91260065	      0.00000000	     15.70052290	     15.62251940	     26.55127216	      7.46942171	     27.92554748	     20.64313666	     14.50364319	     12.15716021	     19.66293667	     11.37181450	     11.15324218	      7.12039757	     18.11779344	     27.54583488	     20.55620729	     63.92578024	     55.73415570	     18.08271668	      9.16509816	     20.03713766	    235.10744572	     92.29736302	    130.50657752	    124.75399203	      8.22840797	      8.41215389	    146.04829586	     91.82801083	     14.96366835	     15.23552787	     43.83270137	     21.36111478	     46.01188218	      9.38201613	     25.51907293	      8.14107652	     37.47068608	     28.27022932	     30.24086714	     13.26950867	     14.46480712	     15.91260065	     42.06228881	     20.39020965	     37.67123261	     35.98888344	      7.57882260	     27.92554748	     20.64313666	     14.50364319	     12.15716021	     19.66293667	     12.58033419	     11.15324218	      7.77413879	     18.11779344	     27.54583488	     20.55620729	     63.92578024	     55.73415570	     18.08271668	      9.16509816	     20.03713766	     52.58867645	     32.47668845	     37.21372981	     39.86386325	     67.70976811	     31.64643975	    152.71327822	     92.44307771	     14.93402208	     15.26942871	     41.82127614	     21.62263156	     46.40335095	      8.85785788	     25.04326423	      7.95848292	    124.81723588	    124.81723588	     44.95337082	     44.95337082	     60.96445217	     60.96445217	      2.76307435	     50.99597937	     -9.56042239	      5.21997485	     -0.02578839	      1.48581788	     -2.76307435	    -50.99597937	      9.56042239	     -1.74637766	      0.02558040	     -0.48301696	     -3.31599387	     20.97615968	     -3.40468921	      0.94473225	     -0.02138609	     -1.00501789	      3.31599387	    -20.97615968	      3.40468921	      0.28075727	      0.00368718	     -0.29758878	    186.46697834	    -76.60819491	     -2.08387423	      2.64750353	      4.30754009	     75.97084349	   -186.46697834	     76.60819491	      2.08387423	     -2.20561473	     -5.18327337	     -4.23618132	      0.00000000	      0.00000000	      0.00000000	      0.00000000	      0.00000000	      0.00000000	      0.00000000	      0.00000000	      0.00000000	      0.00000000	      0.00000000	      0.00000000	      0.00000000	      0.00000000	      0.00000000	      0.00000000	      0.00000000	      0.00000000	      0.00000000	      0.00000000	      0.00000000	      0.00000000	      0.00000000	      0.00000000	      0.00000000	      0.00000000	      0.00000000	      0.00000000	      0.00000000	      0.00000000	      0.00000000	      0.00000000	      0.00000000	      0.00000000	      0.00000000	      0.00000000	   -204.08170994	     61.76052177	     32.17911268	      0.11936618	      2.61746039	     -4.27125820	    204.08170994	    -61.76052177	    -32.17911268	     12.31604510	     -2.75028208	     83.39224456	      0.00000000	      0.00000000	      0.00000000	      0.00000000	      0.00000000	      0.00000000	      0.00000000	      0.00000000	      0.00000000	      0.00000000	      0.00000000	      0.00000000	    -37.90412403	    -41.21968283	   1187.77721758	    642.65836844	   -122.20703364	   -138.49952051	   -142.49490119	      0.00000000	      0.00000000	      0.00000000	      0.00000000	      0.00000000	      0.00000001	      0.00000000	      0.00000000	   -110.00000000	      0.00000000
      0.00232326	     37.42632275	     28.19904420	     30.17660524	     13.19215494	     14.41764392	     15.89287132	      0.00000000	     17.91935154	     18.26622962	     32.68377462	      8.02077010	     27.86712417	     20.47908037	     14.46750895	     12.13512274	     19.64437316	      9.89729385	     11.10235999	      8.29045231	     18.07942709	     27.48837790	     20.51981130	     63.82621728	     55.67552797	     18.02037548	      9.15596816	     20.02898169	    258.15491443	    117.16740365	    166.53456723	    164.56661994	      3.69445267	      5.18031304	    127.96024405	     90.04518068	     15.10518996	     15.18873685	     49.92055098	     20.60089538	     44.86191426	     10.92971644	     26.81566385	      8.63623475	     37.42632275	     28.19904420	     30.17660524	     13.19215494	     14.41764392	     15.89287132	     42.04214484	     20.36354913	     37.64880336	     35.86819135	      7.52801965	     27.86712417	     20.47908037	     14.46750895	     12.13512274	     19.64437316	     12.57561311	     11.10235999	      7.74194166	     18.07942709	     27.48837790	     20.51981130	     63.82621728	     55.67552797	     18.02037548	      9.15596816	     20.02898169	     52.55474188	     32.42842089	     37.16561994	     39.81482552	     67.68985114	     31.63696574	    152.65149707	     92.42743687	     14.93703403	     15.27141064	     41.78941833	     21.61113391	     46.39178445	      8.84597087	     25.02169711	      7.94986333	    124.13311821	    124.13311821	     44.87998232	     44.87998232	     60.88552004	     60.88552004	      2.76307435	     50.99597937	     -9.56042239	      5.21997485	     -0.02578839	      1.48581788	     -2.76307435	    -50.99597937	      9.56042239	     -1.74637766	      0.02558040	     -0.48301696	     -3.31599387	     20.97615968	     -3.40468921	      0.94473225	     -0.02138609	     -1.00501789	      3.31599387	    -20.97615968	      3.40468921	      0.28075727	      0.00368718	     -0.29758878	    229.13515396	   -117.05676271	     19.97250005	     -5.28606020	      5.60179602	     93.69187101	   -229.13515396	    117.05676271	    -19.97250005	     -3.21149842	     -7.30330847	     -6.17574343	      0.00000000	      0.00000000	      0.00000000	      0.00000000	      0.00000000	      0.00000000	      0.00000000	      0.00000000	      0.00000000	      0.00000000	      0.00000000	      0.00000000	      0.00000000	      0.00000000	      0.00000000	      0.00000000	      0.00000000	      0.00000000	      0.00000000	      0.00000000	      0.00000000	      0.00000000	      0.00000000	      0.00000000	      0.00000000	      0.00000000	      0.00000000	      0.00000000	      0.00000000	      0.00000000	      0.00000000	      0.00000000	      0.00000000	      0.00000000	      0.00000000	      0.00000000	   -492.97426057	    186.31125714	     26.14663838	      1.06380813	      4.44449610	    -11.73031978	    492.97426057	   -186.31125714	    -26.14663838	      8.36513943	     -6.17635159	    201.84625581	      0.00000000	      0.00000000	      0.00000000	      0.00000000	      0.00000000	      0.00000000	      0.00000000	      0.00000000	      0.00000000	      0.00000000	      0.00000000	      0.00000000	    -45.70603603	    -58.53394674	   1117.91914512	    559.91496158	   -137.76342260	   -155.60498547	   -161.13687183	      0.00000000	      0.00000000	      0.00000000	      0.00000000	      0.00000000	      0.00000001	      0.00000000	      0.00000000	   -110.00000000	      0.00000000
      0.00364653	     37.34775011	     28.07815742	     30.06609297	     13.07480986	     14.33964199	     15.85798566	      0.00000000	     19.83670163	     20.73213517	     34.72519012	      8.36642200	     27.76655768	     20.24943524	     14.40610018	     12.09685416	     19.61125379	      8.74600667	     11.02164417	      8.88336222	     18.01344171	     27.38945938	     20.45652470	     63.65379203	     55.57135293	     17.91768159	      9.13977298	     20.01418876	    151.41898759	     85.10339286	     41.91519339	    149.44681170	      1.84631451	      2.88201464	    110.58852920	     88.09100755	     15.33382529	     15.21073878	     56.51961199	     19.84553824	     43.66873177	     12.45360800	     28.07571159	      9.10423695	     37.34775011	     28.07815742	     30.06609297	     13.07480986	     14.33964199	     15.85798566	     42.00569694	     20.31650399	     37.60835724	     35.66874302	      7.45340267	     27.76655768	     20.24943524	     14.40610018	     12.09685416	     19.61125379	     12.56705441	     11.02164417	      7.69012501	     18.01344171	     27.38945938	     20.45652470	     63.65379203	     55.57135293	     17.91768159	      9.13977298	     20.01418876	     52.49363793	     32.34374443	     37.08071177	     39.72811485	     67.65360371	     31.61972564	    152.53942991	     92.39891125	     14.94223281	     15.27473178	     41.73225610	     21.59035529	     46.37070130	      8.82503906	     24.98322632	      7.93455177	    123.08223011	    123.08223011	     44.75178840	     44.75178840	     60.74844248	     60.74844248	      2.76307435	     50.99597937	     -9.56042239	      5.21997485	     -0.02578839	      1.48581788	     -2.76307435	    -50.99597937	      9.56042239	     -1.74637766	      0.02558040	     -0.48301696	     -3.31599387	     20.97615968	     -3.40468921	      0.94473225	     -0.02138609	     -1.00501789	      3.31599387	    -20.97615968	      3.40468921	      0.28075727	      0.00368718	     -0.29758878	    212.13328532	   -115.39977426	     40.41843182	    -13.53761956	      5.47823292	     86.87618750	   -212.13328532	    115.39977426	    -40.41843182	     -3.05230641	     -7.66429143	     -6.04660819	      0.00000000	      0.00000000	      0.00000000	      0.00000000	      0.00000000	      0.00000000	      0.00000000	      0.00000000	      0.00000000	      0.00000000	      0.00000000	      0.00000000	      0.00000000	      0.00000000	      0.00000000	      0.00000000	      0.00000000	      0.00000000	      0.00000000	      0.00000000	      0.00000000	      0.00000000	      0.00000000	      0.00000000	      0.00000000	      0.00000000	      0.00000000	      0.00000000	      0.00000000	      0.00000000	      0.00000000	      0.00000000	      0.00000000	      0.00000000	      0.00000000	      0.00000000	   -768.66638176	    253.88334710	     47.20077961	      1.43618312	      7.44501556	    -16.86756986	    768.66638176	   -253.88334710	    -47.20077961	     16.01746780	     -9.91365250	    314.37919210	      0.00000000	      0.00000000	      0.00000000	      0.00000000	      0.00000000	      0.00000000	      0.00000000	      0.00000000	      0.00000000	      0.00000000	      0.00000000	      0.00000000	    -32.55832986	    -45.51139500	   1094.20106907	    583.75593954	    -89.16203701	   -104.11138044	   -108.76585615	      0.00000000	      0.00000000	      0.00000000	      0.00000000	      0.00000000	      0.00000001	      0.00000000	      0.00000000	   -110.00000000	      0.00000000
